<svg height="622" width="720" xmlns="http://www.w3.org/2000/svg">
<rect height="622" fill="#555" width="720"></rect>
<text fill="#7f7" font-family="Courier New" font-size="12" xml:space="preserve">
<tspan x="10" y="26">9 megabytes installed</tspan>
<tspan x="10" y="42"></tspan>
<tspan x="10" y="58">node_modules</tspan>
<tspan x="10" y="74">└─┬ cfonts@1.1.2 </tspan>
<tspan x="10" y="90">  ├─┬ babel-runtime@6.22.0 </tspan>
<tspan x="10" y="106">  │ ├── core-js@2.4.1 </tspan>
<tspan x="10" y="122">  │ └── regenerator-runtime@0.10.3 </tspan>
<tspan x="10" y="138">  ├─┬ chalk@1.0.0 </tspan>
<tspan x="10" y="154">  │ ├── ansi-styles@2.2.1 </tspan>
<tspan x="10" y="170">  │ ├── escape-string-regexp@1.0.5 </tspan>
<tspan x="10" y="186">  │ ├─┬ has-ansi@1.0.3 </tspan>
<tspan x="10" y="202">  │ │ ├── ansi-regex@1.1.1 </tspan>
<tspan x="10" y="218">  │ │ └── get-stdin@4.0.1 </tspan>
<tspan x="10" y="234">  │ ├── strip-ansi@2.0.1 </tspan>
<tspan x="10" y="250">  │ └── supports-color@1.3.1 </tspan>
<tspan x="10" y="266">  ├─┬ change-case@3.0.0 </tspan>
<tspan x="10" y="282">  │ ├── camel-case@3.0.0 </tspan>
<tspan x="10" y="298">  │ ├── constant-case@2.0.0 </tspan>
<tspan x="10" y="314">  │ ├── dot-case@2.1.1 </tspan>
<tspan x="10" y="330">  │ ├── header-case@1.0.1 </tspan>
<tspan x="10" y="346">  │ ├── is-lower-case@1.1.3 </tspan>
<tspan x="10" y="362">  │ ├── is-upper-case@1.1.2 </tspan>
<tspan x="10" y="378">  │ ├── lower-case@1.1.4 </tspan>
<tspan x="10" y="394">  │ ├── lower-case-first@1.0.2 </tspan>
<tspan x="10" y="410">  │ ├── no-case@2.3.1 </tspan>
<tspan x="10" y="426">  │ ├── param-case@2.1.1 </tspan>
<tspan x="10" y="442">  │ ├── pascal-case@2.0.1 </tspan>
<tspan x="10" y="458">  │ ├── path-case@2.1.1 </tspan>
<tspan x="10" y="474">  │ ├── sentence-case@2.1.1 </tspan>
<tspan x="10" y="490">  │ ├── snake-case@2.1.0 </tspan>
<tspan x="10" y="506">  │ ├── swap-case@1.1.2 </tspan>
<tspan x="10" y="522">  │ ├── title-case@2.1.1 </tspan>
<tspan x="10" y="538">  │ ├── upper-case@1.1.3 </tspan>
<tspan x="10" y="554">  │ └── upper-case-first@1.1.2 </tspan>
<tspan x="10" y="570">  ├─┬ commander@2.9.0 </tspan>
<tspan x="10" y="586">  │ └── graceful-readlink@1.0.1 </tspan>
<tspan x="10" y="602">  └── window-size@0.3.0</tspan>
</text>
</svg>
